<svg id="Lines" xmlns="http://www.w3.org/2000/svg" viewBox="0 0 329.4 336.2"><defs><style>.cls-1{fill:none;stroke:#dad9d6;stroke-width:0.6px;}.cls-2{fill:#dad9d6;}</style></defs><title>Hand_Watermark_01</title><polyline class="cls-1" points="125.3 41 103.4 53 62.7 75.4 62.4 106.6 28.2 126.6 2.5 161.8 23.4 219.9 26.9 245.4 83.3 300 134.1 332.2 150.6 296.1 175.8 304.2 205.4 277.5 234.7 249.7 252.2 259.5 321 253.7 286.6 191.7 276.6 173.5 284.8 154.9 300.4 141 302.6 114.5 294.8 63.2 325.4 162.3 302.5 220.1"/><polyline class="cls-1" points="161.2 242.1 130.6 206.5 94.2 196 57.4 185.4 51.3 183.6 38.5 179.9 62.4 106.6 122.2 126.9 195.4 103.3 233.3 112.1 254.4 132.6 234 194.5 237.3 202.4 250.6 213.2 321 253.7 260.3 232.2 234.7 249.7 161.2 242.1"/><polyline class="cls-1" points="94.2 196 93.1 210.1 92.4 219.4 138.6 245 153.3 243.8 161.2 242.1 188.5 236.1 224.8 208.1 237.3 202.4 276.6 173.5 288.2 185.1"/><polyline class="cls-1" points="146.4 278.1 117.1 248.9 97 231.5 70.3 208.4 51.3 183.6"/><polyline class="cls-1" points="286.4 95.7 269.6 97.2 250.8 91.9 245.7 90.4 235.9 87.6 209.9 77.7 197.4 63.9 193.3 59.5 173.7 38.5 144.9 7.9 159.3 64.7 96.1 88.9 80.7 97 62.4 106.6 130.6 206.5"/><line class="cls-1" x1="233.3" y1="112.1" x2="245.7" y2="90.4"/><polyline class="cls-1" points="250.8 91.9 251.8 103 252.6 111.9 254.4 132.6 232.3 173.7 209.2 194.2 189.3 235"/><polyline class="cls-1" points="251.8 103 300.4 141 286.4 95.7"/><line class="cls-1" x1="285.8" y1="154" x2="252.6" y2="111.9"/><polyline class="cls-1" points="234 194.5 285.4 154.4 288.2 185.1 286.6 191.7"/><polyline class="cls-1" points="209.2 194.2 224.8 208.1 250.6 213.2 260.3 232.2 252.2 259.5"/><polyline class="cls-1" points="175.8 304.2 153.3 243.8 150.6 296.1"/><line class="cls-1" x1="70.3" y1="208.4" x2="93.1" y2="210.1"/><polyline class="cls-1" points="23.4 219.9 69.2 209.1 27.3 245.8 63.7 254.4 83.3 300 116.1 280.8 150.6 296.1 146.4 278.1 140.9 255 138.6 245 130.6 206.5 122.2 126.9 161.2 242.1"/><polyline class="cls-1" points="116.1 280.8 63.7 254.4 117.1 248.9"/><polyline class="cls-1" points="214.2 41 254 26.4 294.8 63.2 219.2 46.4 214.2 41 202.4 28.1 186.3 9.6 185.9 24.2 170.5 18.1 144.9 7.9 125.3 41 96.6 89.3 103.4 53 144.9 7.9 152.2 0.4 174.5 15.9"/><line class="cls-1" x1="62.7" y1="75.4" x2="80.7" y2="97"/><polyline class="cls-1" points="182.8 34.5 185 41.7 193.4 50 209.9 77.7 232.2 111.3"/><line class="cls-1" x1="145.5" y1="8.5" x2="185" y2="41.7"/><polyline class="cls-1" points="193.3 59.5 122.2 126.9 159.3 64.7 173.7 38.5"/><line class="cls-1" x1="195.4" y1="103.3" x2="197.4" y2="63.9"/><polyline class="cls-1" points="235.9 87.6 182.8 34.5 185.9 24.2"/><polyline class="cls-1" points="186.3 9.6 174.5 15.9 170.5 18.1"/><line class="cls-1" x1="250.6" y1="213.2" x2="188.5" y2="236.1"/><line class="cls-1" x1="93.1" y1="210.1" x2="57.4" y2="185.4"/><line class="cls-1" x1="92.4" y1="219.4" x2="140.9" y2="255"/><polyline class="cls-1" points="182.8 34.5 202.4 28.1 203.6 49.5 215 57.7"/><line class="cls-1" x1="203.6" y1="49.5" x2="182.8" y2="34.5"/><polyline class="cls-1" points="219.2 46.4 269.6 97.2 215 57.7 219.2 46.4 286.4 95.7 302.6 114.5"/><polyline class="cls-1" points="2.5 161.8 38.5 179.9 23.4 219.9 97 231.5"/><circle class="cls-2" cx="321" cy="253.7" r="8.1" /><circle class="cls-2" cx="116.1" cy="280.8" r="8.1" /><circle class="cls-2" cx="134.1" cy="332.2" r="4" /><circle class="cls-2" cx="250.6" cy="213.2" r="4" /><circle class="cls-2" cx="62.4" cy="106.6" r="4" /><circle class="cls-2" cx="150.6" cy="296.1" r="4" /><circle class="cls-2" cx="232.3" cy="173.7" r="4" /><circle class="cls-2" cx="233.3" cy="112.1" r="4" /><circle class="cls-2" cx="325.4" cy="162.3" r="4" /><circle class="cls-2" cx="195.4" cy="103.3" r="2.5" /><circle class="cls-2" cx="159.3" cy="64.7" r="2.5" /><circle class="cls-2" cx="63.7" cy="254.4" r="2.5" /><circle class="cls-2" cx="70.3" cy="208.4" r="2.5" /><circle class="cls-2" cx="96.6" cy="89.3" r="2.5" /><circle class="cls-2" cx="28.2" cy="126.6" r="2.5" /><circle class="cls-2" cx="254" cy="26.4" r="2.5" /><circle class="cls-2" cx="219.2" cy="46.4" r="2.5" /><circle class="cls-2" cx="202.4" cy="28.1" r="2.5" /><circle class="cls-2" cx="185.5" cy="24.8" r="2.5" /><circle class="cls-2" cx="235.9" cy="87.6" r="2.5" /><circle class="cls-2" cx="193.3" cy="59.5" r="2.5" /><circle class="cls-2" cx="234.7" cy="249.7" r="2.5" /><circle class="cls-2" cx="117.1" cy="248.9" r="2.5" /><circle class="cls-2" cx="92.4" cy="219.4" r="2.5" /><circle class="cls-2" cx="23.4" cy="219.9" r="2.5" /><circle class="cls-2" cx="285.7" cy="154.3" r="2.5" /><circle class="cls-2" cx="237.3" cy="202.4" r="2.5" /><circle class="cls-2" cx="276.6" cy="173.5" r="2.5" /><circle class="cls-2" cx="175.8" cy="304.2" r="2.5" /><circle class="cls-2" cx="83.3" cy="300" r="2.5" /><circle class="cls-2" cx="138.6" cy="245" r="2.5" /><circle class="cls-2" cx="153.3" cy="243.8" r="2.5" /><circle class="cls-2" cx="209.2" cy="194.2" r="2.5" /><circle class="cls-2" cx="254.4" cy="132.6" r="2.5" /><circle class="cls-2" cx="300.4" cy="141" r="2.5" /><circle class="cls-2" cx="252.2" cy="259.5" r="2.5" /><circle class="cls-2" cx="205.4" cy="277.5" r="2.5" /><circle class="cls-2" cx="294.8" cy="63.2" r="2.5" /><circle class="cls-2" cx="26.9" cy="245.4" r="4.7" /><circle class="cls-2" cx="2.5" cy="161.8" r="2.5" /><circle class="cls-2" cx="186.3" cy="9.6" r="2.5" /><circle class="cls-2" cx="286.4" cy="95.7" r="2.5" /><circle class="cls-2" cx="130.6" cy="206.5" r="6.3" /><circle class="cls-2" cx="122.2" cy="126.9" r="6.3" /><circle class="cls-2" cx="62.7" cy="75.4" r="6.3" /><circle class="cls-2" cx="188.5" cy="236.1" r="4.2" /><circle class="cls-2" cx="38.5" cy="179.9" r="4.2" /><circle class="cls-2" cx="144.9" cy="7.9" r="4.2" /></svg>